max v2;#N vpatcher 550 48 1392 548;#P window setfont "Sans Serif" 9.;#P hidden newex 562 264 106 196617 bgcolor 190 190 180;#P window setfont "Sans Serif" 24.;#P comment 669 380 142 196632 CatchNurbs;#P window setfont "Sans Serif" 9.;#P message 655 123 68 196617 fullscreen \$1;#P toggle 638 123 15 0;#P newex 680 98 35 196617 sel 27;#P newex 638 98 40 196617 key;#P newex 452 144 102 196617 jit.op @op * @val 3.;#P newex 452 123 184 196617 jit.slide @slide_up 10 @slide_down 20;#P newex 147 95 31 196617 dac~;#P newex 399 60 60 196617 qmetro 0.5;#P newex 627 169 75 196617 jit.window foo;#P newex 447 241 219 196617 jit.gl.render foo @erase_color 0.2 0.3 0.5 0.9;#P newex 545 169 80 196617 jit.gl.handle foo;#P window linecount 2;#P newex 470 203 256 196617 jit.gl.nurbs foo @order 2 2 @dim 30 30 @blend_enable 1 @lighting_enable 1 @color 0.4 0.2 0.1 0.6;#P window linecount 1;#P newex 452 169 91 196617 prepend ctlmatrix;#P newex 452 101 176 196617 jit.matrix soundgrid 3 float32 10 10;#P user jit.pwindow 108 353 82 62 0 1 0 0 1 0;#P user jit.pwindow 110 271 82 62 0 1 0 0 1 0;#P newex 200 309 82 196617 jit.pack 3;#P newex 200 270 118 196617 jit.scissors @columns 3;#P newex 200 247 130 196617 jit.matrix 1 float32 30 10;#P newex 399 81 66 196617 t erase b b b;#P comment 135 51 65 196617 2. Turn it on;#N counter 0 100;#X flags 0 0;#P newobj 200 128 74 196617 counter 0 100;#P newex 200 330 176 196617 jit.matrix soundgrid 3 float32 10 10;#P message 200 187 166 196617 dstdimstart 0 \$1 \, dstdimend 29 \$1;#P newex 200 209 201 196617 jit.matrix 1 float32 30 100 @usedstdim 1;#P flonum 136 64 35 9 0 0 0 3 0 0 0 221 221 221 222 222 222 0 0 0;#P toggle 106 51 29 0;#P newex 82 95 64 196617 qmetro 10;#P newex 21 131 174 196617 jit.catch~ @mode 0 @framesize 512;#P message 21 65 31 196617 open;#N sfplay~  1 120960 0 ;#P newobj 21 95 60 196617 sfplay~;#P message 53 65 35 196617 loop 1;#P comment 7 51 100 196617 1. Load a SoundFile;#P comment 692 412 119 196617 andrewb@cycling74.com;#P fasten 7 0 3 0 111 91 26 91;#P connect 2 0 3 0;#P connect 4 0 3 0;#P fasten 6 0 5 0 87 123 26 123;#P connect 3 0 5 0;#P fasten 7 0 6 0 111 91 87 91;#P fasten 11 0 19 0 205 351 114 351;#P fasten 15 0 18 0 205 267 116 267;#P connect 8 0 6 1;#P fasten 7 0 27 0 111 91 152 91;#P fasten 6 0 12 0 87 123 205 123;#P connect 12 0 10 0;#P connect 10 0 9 0;#P fasten 5 0 9 0 26 205 205 205;#P connect 9 0 15 0;#P connect 15 0 16 0;#P connect 16 0 17 0;#P connect 17 0 11 0;#P connect 16 1 17 1;#P connect 16 2 17 2;#P fasten 7 0 26 0 111 89 389 89 389 54 404 54;#P connect 26 0 14 0;#P fasten 14 0 24 0 404 204 452 204;#P fasten 14 1 24 0 422 204 452 204;#P connect 14 3 20 0;#P connect 20 0 28 0;#P connect 28 0 29 0;#P connect 29 0 21 0;#P fasten 23 0 22 0 550 194 475 194;#P fasten 14 2 22 0 440 193 475 193;#P fasten 21 0 22 0 457 193 475 193;#P fasten 33 0 25 0 660 163 632 163;#P fasten 31 0 32 0 685 120 643 120;#P fasten 32 0 33 0 654 138 654 123;#P fasten 30 0 31 0 679 115 679 100;#P pop;