max v2;#N vpatcher 134 235 721 662;#P window setfont "Sans Serif" 9.;#P window linecount 1;#P comment 236 243 49 196617 threshold;#P user panel 553 27 8 47;#X brgb 43 131 255;#X frgb 0 0 0;#X border 0;#X rounded 0;#X shadow 0;#X done;#P user panel 541 27 13 47;#X brgb 255 241 24;#X frgb 0 0 0;#X border 0;#X rounded 0;#X shadow 0;#X done;#P hidden newex 412 343 106 196617 bgcolor 220 220 200;#P comment 405 60 120 196617 andrewb@cycling74.com;#P newex 140 240 58 196617 prepend op;#P user ubumenu 131 219 29 196617 0 1 1 0;#X add >;#X add <;#X prefix_set 0 0 <none> 0;#P message 8 121 56 196617 dim \$1 \$1;#P newex 8 101 64 196617 random 200;#P newex 374 147 36 196617 t b l;#P newex 74 210 27 196617 t l l;#P flonum 202 241 35 9 0 0 0 3 0 0 0 221 221 221 222 222 222 0 0 0;#P newex 74 158 66 196617 jit.rgb2luma;#P newex 74 183 117 196617 jit.matrix 1 char 40 30;#B color 5;#P user jit.pwindow 47 311 82 62 0 1 0 0 1 0;#P newex 48 283 129 196617 jit.matrix 1 char 640 480;#B color 5;#P newex 48 262 112 196617 jit.op @op > @val 0.05;#P newex 348 382 91 196617 jit.window melter;#B color 5;#P newex 270 382 76 196617 jit.matrix hold;#B color 5;#P newex 270 342 140 196617 jit.alphablend;#P newex 400 201 163 196617 jit.matrix hold 4 float32 640 480;#P button 411 141 23 0;#P newex 400 171 94 196617 jit.matrix @thru 0;#P newex 270 315 53 196617 jit.pack 4;#P newex 48 240 89 196617 jit.op @op absdiff;#P newex 270 199 66 196617 jit.unpack 4;#P message 119 64 30 196617 open;#P flonum 108 44 35 9 0.5 0 1 3 0 0 0 221 221 221 222 222 222 0 0 0;#P toggle 74 44 15 0;#P newex 74 64 44 196617 metro 2;#P newex 74 101 98 196617 jit.qt.grab 640 480;#B color 5;#P comment 435 141 107 196617 reset to current input;#P comment 150 64 86 196617 open video device;#P window setfont "Sans Serif" 24.;#P comment 443 34 100 196632 Debris;#P user panel 525 27 17 47;#X brgb 232 109 0;#X frgb 0 0 0;#X border 0;#X rounded 0;#X shadow 0;#X done;#P user panel 405 27 120 47;#X brgb 223 244 255;#X frgb 0 0 0;#X border 0;#X rounded 0;#X shadow 0;#X done;#P fasten 6 0 27 0 79 91 13 91;#P connect 27 0 28 0;#P connect 25 1 11 0;#P connect 11 0 19 0;#P fasten 30 0 19 0 145 260 53 260;#P connect 19 0 20 0;#P connect 20 0 21 0;#P connect 7 0 6 0;#P fasten 9 0 5 0 124 91 79 91;#P fasten 6 0 5 0 79 94 79 94;#P connect 5 0 23 0;#P connect 23 0 22 0;#P fasten 28 0 22 0 13 178 79 178;#P connect 22 0 25 0;#P connect 8 0 6 1;#P connect 25 0 11 1;#P connect 29 1 30 0;#P fasten 24 0 19 1 207 259 155 259;#P fasten 5 0 10 0 79 150 275 150;#P fasten 20 0 12 0 53 307 275 307;#P connect 12 0 16 0;#P connect 16 0 17 0;#P connect 10 1 12 1;#P connect 10 2 12 2;#P connect 10 3 12 3;#P fasten 16 0 18 0 275 370 353 370;#P fasten 5 0 26 0 79 125 379 125;#P fasten 14 0 13 0 416 167 405 167;#P connect 26 1 13 0;#P connect 13 0 15 0;#P fasten 26 0 15 0 379 196 405 196;#P connect 15 0 16 1;#P pop;