max v2;#N vpatcher 595 194 1319 576;#P window setfont "Sans Serif" 9.;#P window linecount 3;#P comment 615 302 92 196617 double click to input multi-line text. Then BANG;#P window linecount 1;#P hidden newex 393 225 74 196617 loadmess -0.9;#P flonum 393 246 35 9 0 0 0 3 0 0 0 221 221 221 222 222 222 0 0 0;#P hidden newex 401 269 45 196617 - 0.003;#P button 512 279 15 0;#P newex 512 302 102 196617 jit.textfile @adapt 1;#P user panel 686 22 8 47;#X brgb 43 131 255;#X frgb 0 0 0;#X border 0;#X rounded 0;#X shadow 0;#X done;#P user panel 674 22 13 47;#X brgb 255 241 24;#X frgb 0 0 0;#X border 0;#X rounded 0;#X shadow 0;#X done;#P hidden newex 14 289 106 196617 bgcolor 220 220 200;#P comment 538 55 120 196617 andrewb@cycling74.com;#P window setfont "Sans Serif" 24.;#P comment 553 26 100 196632 SubTitle;#P user panel 658 22 17 47;#X brgb 232 109 0;#X frgb 0 0 0;#X border 0;#X rounded 0;#X shadow 0;#X done;#P user panel 538 22 120 47;#X brgb 223 244 255;#X frgb 0 0 0;#X border 0;#X rounded 0;#X shadow 0;#X done;#P window setfont "Sans Serif" 9.;#P newex 130 221 27 196617 t b l;#P hidden message 82 134 68 196617 fullscreen \$1;#P hidden toggle 82 116 15 0;#P hidden newex 82 97 35 196617 sel 27;#P hidden newex 82 78 40 196617 key;#P hidden newex 423 90 38 196617 sel 13;#P hidden newex 449 135 48 196617 loadbang;#P hidden newex 497 183 66 196617 prepend font;#P hidden newex 382 90 40 196617 t clear;#P hidden newex 449 155 42 196617 fontlist;#P hidden newex 497 158 66 196617 tosymbol;#P user ubumenu 498 135 147 196617 0 1 1 0;#X add Geneva;#X add Monaco;#X add Times;#X add Helvetica;#X add Courier;#X add Symbol;#X add "Lucida Grande";#X add "Zapf Dingbats";#X add .TimesLTMM_1_Wt_1_Wd;#X add .HelveLTMM_170_Wt_1200_Wd;#X add Osaka;#X add Osaka|;#X add "Apple LiGothic Medium";#X add AppleGothic;#X add "Monaco CY";#X add "Lucida Grande CY";#X add "Times CY";#X add Hei;#X add "Geneva CE";#X add "Monaco CE";#X add "Times CE";#X add "Helvetica CE";#X add "Courier CE";#X add 华文细黑;#X add "Geeza Pro Bold";#X add "Lucida Grande CE";#X add "淖堵 Pro";#X add "Geeza Pro";#X add 华文黑体;#X add Zapfino;#X add "Trebuchet MS";#X add "Edwardian Script ITC";#X add .ToccataScreen;#X add "Arial Narrow";#X add Arial;#X add "Century Gothic";#X add "Courier New";#X add "Monotype Sorts";#X add "Times New Roman";#X add Wingdings;#X add "Hoefler Text";#X add "Hoefler Text Ornaments";#X add "Marker Felt";#X add Impact;#X add Skia;#X add Copperplate;#X add "Apple Chancery";#X add "Copperplate Light";#X add Baskerville;#X add "Baskerville Semibold";#X add "Big Caslon";#X add "Arial Rounded MT Bold";#X add "Brush Script MT";#X add "Copperplate Gothic Light";#X add "American Typewriter";#X add "American Typewriter Condensed";#X add "American Typewriter Light";#X add "American Typewriter Condensed Light";#X add Futura;#X add "Futura Condensed";#X add "Optima ExtraBlack";#X add Herculanum;#X add "Gill Sans";#X add "Gill Sans Light";#X add "Comic Sans MS";#X add "Copperplate Gothic Bold";#X add "Helvetica Neue";#X add "Helvetica Neue Bold Condensed";#X add "Helvetica Neue UltraLight";#X add "Helvetica Neue Light";#X add "Helvetica Neue Black Condensed";#X add Papyrus;#X add "Lucida Handwriting";#X add Optima;#X add Tahoma;#X add "Andale Mono";#X add Verdana;#X add Didot;#X add "Arial Black";#X add Georgia;#X add Webdings;#X add Cochin;#X add BiauKai;#X add "Apple LiSung Light";#X add AppleMyungjo;#X add #泵辑眉;#X add #庆靛扼牢A;#X add #鞘扁眉;#X add #PC疙炼;#X add "Geneva CY";#X add "Charcoal CY";#X add "Helvetica CY";#X add Song;#X add Kai;#X add "Fang Song";#X add 华文宋体;#X add Chalkboard;#X add SToccata;#X add "Euphemia UCAS Italic";#X add "淖Ш Pro";#X add Ayuthaya;#X add Thonburi;#X add 华文楷体;#X add "Euphemia UCAS Bold";#X add InaiMathi;#X add "Euphemia UCAS";#X add "Chalkboard Bold";#X add Silom;#X add 华文仿宋;#X add "GB18030 Bitmap";#X add "Curlz MT";#X add Krungthep;#X add Sathu;#X add "Plantagenet Cherokee";#X prefix_set 0 0 <none> 0;#P number 646 135 35 9 0 0 0 3 0 0 0 221 221 221 222 222 222 0 0 0;#P hidden message 646 154 43 196617 size \$1;#P newex 382 175 95 196617 jit.str.fromsymbol;#P newex 382 143 56 196617 route text;#P user textedit 382 112 681 132 32896 3 9;#P message 156 311 180 196617 position 0.003 \$1 0. \, color 1. 1. 1. 1.;#P newex 142 270 53 196617 t b b b b;#P message 184 292 153 196617 position 0. \$1 0. \, color 0 0 0 1.;#P newex 142 339 363 196617 jit.gl.text2d foo @blend_enable 1 @automatic 0 @position 0. -0.95 0. @align 1;#P message 130 180 30 196617 open;#P newex 130 202 98 196617 jit.qt.grab 640 480;#P newex 130 245 251 196617 jit.gl.videoplane foo @scale 1.333 1. 1. @automatic 0;#P toggle 14 107 15 0;#P newex 82 152 146 196617 jit.window foo @size 640 480;#P newex 14 269 126 196617 jit.gl.render foo @ortho 2;#P newex 14 152 66 196617 t b b b erase;#P newex 14 128 51 196617 qmetro 5;#P comment 427 249 92 196617 vertical placement;#P comment 559 98 121 196617 type single line text here;#P user panel 351 74 343 130;#X brgb 116 151 47;#X frgb 0 0 0;#X border 0;#X rounded 0;#X shadow 0;#X done;#P background;#P connect 7 0 3 0;#P connect 3 0 4 0;#P fasten 4 3 5 0 73 175 19 175;#P connect 4 0 5 0;#P hidden connect 27 0 28 0;#P hidden connect 28 0 29 0;#P hidden connect 29 0 30 0;#P hidden connect 30 0 6 0;#P fasten 4 2 9 0 55 198 135 198;#P connect 10 0 9 0;#P connect 9 0 31 0;#P connect 31 1 8 0;#P connect 31 0 8 0;#P fasten 4 1 13 0 37 265 147 265;#P fasten 39 0 11 0 517 332 147 332;#P fasten 17 0 11 0 387 328 147 328;#P hidden fasten 24 0 11 0 502 332 147 332;#P connect 12 0 11 0;#P connect 13 2 11 0;#P connect 14 0 11 0;#P connect 13 0 11 0;#P hidden fasten 18 0 11 0 651 335 147 335;#P hidden fasten 42 0 14 0 398 308 161 308;#P connect 13 1 14 0;#P hidden fasten 41 0 12 0 406 289 189 289;#P connect 13 3 12 0;#P hidden fasten 17 0 23 0 387 240 371 240 371 84 387 84;#P hidden fasten 26 0 15 0 428 109 387 109;#P hidden connect 23 0 15 0;#P connect 15 0 16 0;#P connect 16 0 17 0;#P hidden connect 43 0 42 0;#P hidden connect 42 0 41 0;#P hidden connect 15 1 26 0;#P hidden connect 25 0 22 0;#P hidden fasten 20 1 21 0 571 155 502 155;#P hidden connect 21 0 24 0;#P hidden connect 22 0 20 0;#P connect 40 0 39 0;#P hidden connect 19 0 18 0;#P pop;