max v2;#N vpatcher 575 76 1184 401;#P window setfont "Sans Serif" 9.;#P hidden newex 481 69 106 196617 bgcolor 200 200 180;#P user panel 578 18 8 47;#X brgb 43 131 255;#X frgb 0 0 0;#X border 0;#X rounded 0;#X shadow 0;#X done;#P user panel 566 18 13 47;#X brgb 255 241 24;#X frgb 0 0 0;#X border 0;#X rounded 0;#X shadow 0;#X done;#P comment 430 51 120 196617 andrewb@cycling74.com;#P window setfont "Sans Serif" 24.;#P comment 445 22 103 196632 Stutters;#P user panel 550 18 17 47;#X brgb 232 109 0;#X frgb 0 0 0;#X border 0;#X rounded 0;#X shadow 0;#X done;#P user panel 386 18 166 47;#X brgb 223 244 255;#X frgb 0 0 0;#X border 0;#X rounded 0;#X shadow 0;#X done;#P window setfont "Sans Serif" 9.;#P newex 12 258 101 196617 jit.window stammer;#B color 5;#P message 295 120 14 196617 0;#P newex 295 98 40 196617 change;#P newex 24 153 91 196617 t getframecount 0;#P newex 76 214 111 196617 route read framecount;#P newex 309 219 66 196617 - 5;#P message 255 278 52 196617 frame \$1;#P newex 309 244 27 196617 +;#P newex 255 98 27 196617 + 1;#P toggle 255 36 15 0;#P newex 255 119 38 196617 gate 2;#P newex 255 152 31 196617 t b 1;#P newex 255 180 52 196617 accum;#P newex 255 220 27 196617 %;#P newex 309 152 31 196617 t b 1;#P number 272 36 35 9 0 0 0 3 0 0 0 221 221 221 222 222 222 0 0 0;#P newex 309 200 59 196617 % 5;#P newex 309 180 52 196617 accum;#P newex 12 57 30 196617 t b b;#P message 93 37 28 196617 read;#P toggle 12 17 15 0;#P newex 12 37 78 196617 qmetro 33.333;#P newex 12 186 125 196617 jit.qt.movie @autostart 0;#B color 5;#P comment 308 37 69 196617 stutter length;#P connect 3 0 2 0;#P connect 2 0 5 0;#P fasten 20 0 1 0 29 178 17 178;#P connect 5 0 1 0;#P fasten 17 0 1 0 260 298 189 298 189 182 17 182;#P fasten 4 0 1 0 98 106 17 106;#P connect 1 0 23 0;#P fasten 19 0 20 0 81 236 9 236 9 147 29 147;#P fasten 1 1 19 0 132 211 81 211;#P connect 14 0 15 0;#P connect 15 0 13 0;#P connect 13 0 12 0;#P fasten 20 1 11 0 110 177 260 177;#P connect 12 0 11 0;#P connect 11 0 10 0;#P connect 10 0 17 0;#P fasten 16 0 17 0 314 267 260 267;#P fasten 19 1 10 1 131 236 194 236 194 217 277 217;#P connect 12 1 11 1;#P fasten 5 1 13 1 37 80 288 80;#P fasten 14 0 21 0 260 73 300 73;#P connect 21 0 22 0;#P fasten 13 1 9 0 288 142 314 142;#P fasten 22 0 6 0 300 173 314 173;#P connect 9 0 6 0;#P connect 6 0 7 0;#P connect 7 0 18 0;#P connect 18 0 16 0;#P fasten 10 0 16 1 260 240 331 240;#P connect 9 1 6 1;#P fasten 8 0 7 1 277 66 363 66;#P fasten 8 0 18 1 277 66 370 66;#P pop;