max v2;#N vpatcher 155 44 860 502;#P window setfont "Sans Serif" 9.;#P window linecount 1;#P newex 312 88 40 196617 / 255.;#P window linecount 2;#P comment 358 402 76 196617 be careful with the volume...;#P window linecount 1;#P hidden newex 580 92 106 196617 bgcolor 190 190 180;#P user panel 678 39 8 47;#X brgb 43 131 255;#X frgb 0 0 0;#X border 0;#X rounded 0;#X shadow 0;#X done;#P user panel 666 39 13 47;#X brgb 255 241 24;#X frgb 0 0 0;#X border 0;#X rounded 0;#X shadow 0;#X done;#P comment 530 71 120 196617 andrewb@cycling74.com;#P window setfont "Sans Serif" 24.;#P comment 540 44 109 196632 Hold Still;#P user panel 650 39 17 47;#X brgb 232 109 0;#X frgb 0 0 0;#X border 0;#X rounded 0;#X shadow 0;#X done;#P user panel 486 39 166 47;#X brgb 223 244 255;#X frgb 0 0 0;#X border 0;#X rounded 0;#X shadow 0;#X done;#P window setfont "Sans Serif" 9.;#P comment 378 111 111 196617 number of white pixels;#P newex 418 312 45 196617 >~ 0.15;#P newex 418 336 67 196617 slide~ 10 10;#P comment 188 204 69 196617 reduce flicker;#P newex 312 362 27 196617 *~;#P newex 461 142 47 196617 * 0.001;#P newex 312 329 35 196617 tanh~;#P newex 312 252 37 196617 +~ 60;#P newex 312 306 98 196617 reson~ 10. 100 50.;#P newex 398 142 62 196617 clip 0.01 1.;#P newex 462 162 61 196617 cycle~ 500;#P newex 346 213 126 196617 *~;#P newex 346 193 62 196617 *~;#P newex 312 232 44 196617 +~;#P newex 312 172 29 196617 sig~;#P newex 312 141 41 196617 * 0.05;#P newex 312 286 61 196617 cycle~ 100;#P newex 418 288 29 196617 sig~;#P flonum 321 110 56 9 0 0 0 3 0 0 0 221 221 221 222 222 222 0 0 0;#P newex 312 68 59 196617 * 307200.;#P newex 298 35 53 196617 jit.3m;#P user ezdac~ 312 393 356 426 0;#P newex 9 226 106 196617 jit.op @op > @val 0.3;#P newex 9 203 178 196617 jit.slide @slide_up 2 @slide_down 10;#P flonum 105 161 35 9 0 0 0 3 0 0 0 221 221 221 222 222 222 0 0 0;#P newex 9 181 106 196617 jit.op @op > @val 0.2;#P newex 8 106 66 196617 jit.rgb2luma;#P user jit.pwindow 8 260 202 152 0 1 0 0 1 0;#P message 16 64 30 196617 open;#P toggle 8 25 15 0;#P newex 8 44 51 196617 qmetro 5;#P newex 9 155 89 196617 jit.op @op absdiff;#P newex 8 127 90 196617 t l l;#P newex 8 85 98 196617 jit.qt.grab 640 480;#P comment 140 163 68 196617 set threshold;#P comment 372 69 59 196617 640 * 480;#P connect 6 0 5 0;#P fasten 7 0 2 0 21 82 13 82;#P connect 5 0 2 0;#P connect 2 0 9 0;#P connect 9 0 3 0;#P connect 3 1 4 0;#P connect 4 0 10 0;#P connect 10 0 12 0;#P connect 12 0 13 0;#P connect 13 0 8 0;#P connect 3 0 4 1;#P connect 11 0 10 1;#P fasten 13 0 15 0 14 255 271 255 271 31 303 31;#P connect 15 1 16 0;#P connect 16 0 44 0;#P connect 44 0 20 0;#P connect 20 0 21 0;#P connect 21 0 22 0;#P connect 22 0 28 0;#P connect 28 0 19 0;#P connect 19 0 27 0;#P connect 27 0 29 0;#P connect 29 0 31 0;#P connect 31 0 14 0;#P connect 44 0 17 0;#P fasten 33 0 31 1 423 357 334 357;#P fasten 21 0 23 0 317 191 351 191;#P connect 23 0 24 0;#P connect 24 0 22 1;#P connect 31 0 14 1;#P fasten 28 0 27 2 317 279 375 279;#P fasten 15 1 26 0 317 60 403 60;#P connect 26 0 23 1;#P fasten 26 0 18 0 403 186 423 186;#P connect 18 0 34 0;#P connect 34 0 33 0;#P fasten 44 0 30 0 317 132 466 132;#P connect 30 0 25 0;#P connect 25 0 24 1;#P pop;