max v2;#N vpatcher 74 44 662 404;#P origin 0 -19;#P window setfont "Sans Serif" 9.;#P hidden newex 461 84 106 196617 bgcolor 190 190 180;#P user panel 559 31 8 47;#X brgb 43 131 255;#X frgb 0 0 0;#X border 0;#X rounded 0;#X shadow 0;#X done;#P user panel 547 31 13 47;#X brgb 255 241 24;#X frgb 0 0 0;#X border 0;#X rounded 0;#X shadow 0;#X done;#P comment 411 63 120 196617 andrewb@cycling74.com;#P window setfont "Sans Serif" 24.;#P comment 415 36 118 196632 Fast Cuts;#P user panel 531 31 17 47;#X brgb 232 109 0;#X frgb 0 0 0;#X border 0;#X rounded 0;#X shadow 0;#X done;#P user panel 367 31 166 47;#X brgb 223 244 255;#X frgb 0 0 0;#X border 0;#X rounded 0;#X shadow 0;#X done;#P window setfont "Sans Serif" 9.;#P comment 123 190 49 196617 clip menu;#P newex 131 103 27 196617 + 1;#P user ubumenu 131 83 55 196617 0 1 1 0;#X add clip;#X add frame;#X prefix_set 0 0 <none> 0;#P newex 131 123 98 196617 gate 2;#N vpatcher 20 74 281 310;#P inlet 170 50 15 0;#P window setfont "Sans Serif" 9.;#P window linecount 1;#P message 100 164 52 196617 frame \$1;#P newex 100 70 43 196617 t b i;#P newex 50 69 20 196617 t b;#P newex 100 126 43 196617 random;#P message 50 90 75 196617 getframecount;#P newex 50 50 111 196617 route read framecount;#P inlet 50 30 15 0;#P outlet 100 184 15 0;#P connect 1 0 2 0;#P connect 2 0 5 0;#P connect 5 0 3 0;#P connect 2 1 6 0;#P fasten 8 0 4 0 175 121 105 121;#P connect 6 0 4 0;#P connect 4 0 7 0;#P connect 3 0 0 0;#P connect 7 0 0 0;#P connect 6 1 4 1;#P pop 1;#P newobj 120 297 109 196617 p pick_a_start_frame;#P comment 30 111 87 196617 drop movie folder;#P message 389 200 14 196617 0;#P newex 347 239 32 196617 sel 0;#N counter 24;#X flags 0 0;#P newobj 347 219 66 196617 counter 24;#P button 317 123 73 0;#P newex 317 200 40 196617 sync~;#P user ezdac~ 6 259 50 292 0;#P toggle 15 212 15 0;#P newex 15 237 51 196617 qmetro 5;#P newex 67 319 160 196617 jit.window flashy @size 640 480;#P newex 67 277 63 196617 jit.qt.movie;#P newex 67 237 68 196617 prepend read;#P newex 131 156 43 196617 random;#P newex 112 208 74 196617 route populate;#P user ubumenu 22 188 100 196617 0 1 1 0;#X add;#X prefix_set 0 1 <none> 0;#P newex 22 158 76 196617 prepend prefix;#P user panel 22 31 103 123;#X brgb 95 228 52;#X frgb 0 0 0;#X border 0;#X rounded 0;#X shadow 0;#X done;#P user dropfile 22 31 125 154 0;#P comment 333 110 42 196617 tap beat;#P comment 187 85 92 196617 trigger destination;#P fasten 12 0 13 0 20 234 11 234;#P connect 12 0 11 0;#P connect 2 0 4 0;#P fasten 7 0 5 0 136 179 27 179;#P connect 4 0 5 0;#P connect 5 1 8 0;#P fasten 20 0 9 0 125 316 230 316 230 269 72 269;#P fasten 11 0 9 0 20 256 72 256;#P connect 8 0 9 0;#P connect 9 0 10 0;#P connect 5 2 6 0;#P connect 9 1 20 0;#P connect 22 0 23 0;#P connect 23 0 21 0;#P connect 21 0 7 0;#P fasten 6 0 7 1 117 232 191 232 191 149 169 149;#P fasten 17 0 21 1 352 265 249 265 249 118 224 118;#P connect 21 1 20 1;#P connect 15 0 14 0;#P connect 14 2 16 0;#P connect 16 0 17 0;#P fasten 15 0 18 0 322 198 394 198;#P connect 18 0 16 3;#P pop;