max v2;#N vpatcher 30 44 820 433;#P window setfont "Sans Serif" 9.;#P hidden newex 654 88 106 196617 bgcolor 190 190 180;#P user panel 752 35 8 47;#X brgb 43 131 255;#X frgb 0 0 0;#X border 0;#X rounded 0;#X shadow 0;#X done;#P user panel 740 35 13 47;#X brgb 255 241 24;#X frgb 0 0 0;#X border 0;#X rounded 0;#X shadow 0;#X done;#P comment 604 67 120 196617 andrewb@cycling74.com;#P window setfont "Sans Serif" 24.;#P comment 591 39 152 196632 AlphaToast;#P user panel 724 35 17 47;#X brgb 232 109 0;#X frgb 0 0 0;#X border 0;#X rounded 0;#X shadow 0;#X done;#P user panel 560 35 166 47;#X brgb 223 244 255;#X frgb 0 0 0;#X border 0;#X rounded 0;#X shadow 0;#X done;#P window setfont "Sans Serif" 9.;#P comment 47 126 64 196617 alpha-source;#P comment 382 206 48 196617 source 2;#P flonum 112 244 35 9 0 0 0 3 0 0 0 221 221 221 222 222 222 0 0 0;#P newex 13 262 109 196617 jit.op @op + @val -5.;#P newex 13 224 108 196617 jit.op @op * @val 10.;#P newex 13 282 129 196617 jit.matrix 1 char 320 240;#P newex 13 186 142 196617 jit.matrix 1 float32 320 240;#P flonum 111 206 35 9 0 0 0 3 0 0 0 221 221 221 222 222 222 0 0 0;#P newex 210 308 53 196617 jit.pack 4;#B color 5;#P newex 210 254 66 196617 jit.unpack 4;#B color 5;#P newex 13 165 66 196617 jit.rgb2luma;#P message 31 108 30 196617 open;#P newex 13 139 98 196617 jit.qt.grab 320 240;#B color 5;#P newex 210 329 124 196617 jit.alphablend;#B color 5;#P newex 324 220 105 196617 jit.qt.movie 320 240;#B color 5;#P newex 13 72 112 196617 t b b b;#P message 338 192 30 196617 read;#P user jit.pwindow 439 110 322 242 0 1 0 0 1 0;#P message 232 192 30 196617 read;#P flonum 54 33 35 9 0.5 0 1 3 0 0 0 221 221 221 222 222 222 0 0 0;#P toggle 13 33 15 0;#P newex 13 53 51 196617 qmetro 2;#P newex 210 220 105 196617 jit.qt.movie 320 240;#B color 5;#P comment 269 206 48 196617 source 1;#P connect 3 0 2 0;#P connect 2 0 8 0;#P connect 12 0 11 0;#P connect 8 0 11 0;#P connect 11 0 13 0;#P connect 13 0 17 0;#P connect 17 0 19 0;#P connect 19 0 20 0;#P connect 20 0 18 0;#P connect 4 0 2 1;#P connect 16 0 19 1;#P connect 21 0 20 1;#P fasten 8 1 1 0 69 96 215 96;#P connect 5 0 1 0;#P connect 1 0 14 0;#P fasten 18 0 15 0 18 304 215 304;#P connect 15 0 10 0;#P connect 14 1 15 1;#P connect 14 2 15 2;#P connect 14 3 15 3;#P fasten 8 2 9 0 120 96 329 96;#P connect 7 0 9 0;#P connect 9 0 10 1;#P fasten 10 0 6 0 215 349 435 349 435 105 445 105;#P pop;