max v2;#N vpatcher 6 44 891 565;#P origin -3 25;#P window setfont "Sans Serif" 9.;#P comment 537 244 237 196617 some image-processing/compositing just for fun...;#P flonum 767 370 35 9 0 0 0 3 0 0 0 221 221 221 222 222 222 0 0 0;#P flonum 730 370 35 9 0 0 0 3 0 0 0 221 221 221 222 222 222 0 0 0;#P flonum 663 370 35 9 0 0 0 3 0 0 0 221 221 221 222 222 222 0 0 0;#P flonum 626 370 35 9 0 0 0 3 0 0 0 221 221 221 222 222 222 0 0 0;#P newex 700 389 102 196617 pak param fade 0. 0.;#P newex 599 389 99 196617 pak param lum 0. 1.;#P newex 585 411 174 196617 jit.gl.slab test @file ab.lumagate.jxs;#P flonum 730 296 35 9 0 0 0 3 0 0 0 221 221 221 222 222 222 0 0 0;#P flonum 694 296 35 9 0 0 0 3 0 0 0 221 221 221 222 222 222 0 0 0;#P flonum 658 296 35 9 0 0 0 3 0 0 0 221 221 221 222 222 222 0 0 0;#P newex 635 313 125 196617 pak param bias 0. 0. 0. 0.;#P flonum 730 261 35 9 0 0 0 3 0 0 0 221 221 221 222 222 222 0 0 0;#P flonum 694 261 35 9 0 0 0 3 0 0 0 221 221 221 222 222 222 0 0 0;#P flonum 658 261 35 9 0 0 0 3 0 0 0 221 221 221 222 222 222 0 0 0;#P newex 635 278 130 196617 pak param scale 1. 1. 1. 1.;#P newex 585 340 258 196617 jit.gl.slab test @file cc.scalebias.jxs @colormode uyvy;#P window linecount 2;#P newex 585 431 249 196617 jit.gl.videoplane test @automatic 0 @name ol2_shape @blend_enable 1 @transform_reset 2 @scale -1 1 1;#P window linecount 1;#P newex 418 192 433 196617 jit.gl.videoplane test @automatic 0 @name scene_plane @transform_reset 2 @texture sc_tex;#P comment 782 116 71 196617 sketch objects;#P comment 402 132 209 196617 we are sharing textures between 2 contexts;#P flonum 507 296 35 9 0 0 0 3 0 0 0 221 221 221 222 222 222 0 0 0;#P flonum 507 261 35 9 0 0 0 3 0 0 0 221 221 221 222 222 222 0 0 0;#P message 399 217 33 196617 close;#P comment 92 444 131 196617 named pwindow (preview);#P flonum 471 296 35 9 0 0 0 3 0 0 0 221 221 221 222 222 222 0 0 0;#P flonum 435 296 35 9 0 0 0 3 0 0 0 221 221 221 222 222 222 0 0 0;#P flonum 399 296 35 9 0 0 0 3 0 0 0 221 221 221 222 222 222 0 0 0;#P newex 376 313 125 196617 pak param bias 0. 0. 0. 0.;#P flonum 471 261 35 9 0 0 0 3 0 0 0 221 221 221 222 222 222 0 0 0;#P flonum 435 261 35 9 0 0 0 3 0 0 0 221 221 221 222 222 222 0 0 0;#P flonum 399 261 35 9 0 0 0 3 0 0 0 221 221 221 222 222 222 0 0 0;#P newex 376 278 130 196617 pak param scale 1. 1. 1. 1.;#P message 368 217 30 196617 open;#P newex 326 340 258 196617 jit.gl.slab test @file cc.scalebias.jxs @colormode uyvy;#P newex 326 217 41 196617 r draw;#P newex 326 241 181 196617 jit.qt.grab 640 480 @colormode uyvy;#P newex 612 173 239 196617 jit.gl.texture test @name sc_tex @dim 1680 1050;#P window linecount 2;#P newex 326 359 222 196617 jit.gl.videoplane test @automatic 0 @name ol_shape @blend_enable 1 @transform_reset 2;#P window linecount 1;#P newex 4 184 297 196617 jit.gl.videoplane preview @texture sc_tex @transform_reset 2;#P user jit.pwindow 3 202 322 242 0 1 0 0 1 0;#X name preview;#P newex 4 165 105 196617 jit.gl.render preview;#P window setfont "Arial Black" 24.;#P comment 731 40 119 791478296 Preview;#B frgb 136 59 14;#P user panel 3 20 865 59;#X brgb 234 168 30;#X frgb 0 0 0;#X border 0;#X rounded 0;#X shadow 0;#X done;#P user panel 3 482 865 21;#X brgb 134 175 123;#X frgb 0 0 0;#X border 0;#X rounded 0;#X shadow 0;#X done;#P window setfont "Sans Serif" 9.;#P comment 21 82 87 196617 2. turn on qmetro;#P window setfont Helvetica 14.;#N vpatcher 49 377 455 592;#P window setfont "Sans Serif" 9.;#P message 170 139 158 196617 reset \, drawobject scene_plane 0;#P newex 170 159 129 196617 jit.gl.sketch test @layer 2;#P newex 12 40 48 196617 loadbang;#P message 169 72 246 196617 reset \, drawobject ol_shape 0 \, drawobject ol2_shape;#P newex 169 92 208 196617 jit.gl.sketch test @layer 1 @capture sc_tex;#P comment 152 47 225 196617 layer attribute is used to define rendering order;#P fasten 3 0 2 0 17 63 174 63;#P connect 2 0 1 0;#P fasten 3 0 5 0 17 113 175 113;#P connect 5 0 4 0;#P pop;#P newobj 738 95 115 1376270 p render_master;#P window setfont "Sans Serif" 9.;#P flonum 113 82 35 9 0 0 0 3 0 0 0 221 221 221 222 222 222 0 0 0;#P user jit.fpsgui 302 172 60 196617 0;#P toggle 327 403 15 0;#P message 327 423 68 196617 fullscreen \$1;#P newex 327 441 150 196617 jit.window test @size 640 480;#P toggle 4 81 15 0;#P newex 4 100 120 196617 qmetro 5;#P newex 302 146 308 196617 jit.gl.render test @erase_color 1 1 1 1 @shared_context preview;#P user panel 3 466 865 17;#X brgb 45 208 235;#X frgb 0 0 0;#X border 0;#X rounded 0;#X shadow 0;#X done;#P hidden newex 396 422 35 196617 sel 27;#P hidden newex 396 401 40 196617 key;#P comment 776 159 75 196617 captured scene;#P newex 28 145 41 196617 s draw;#P newex 4 120 58 196617 t b b erase;#P connect 8 0 7 0;#P connect 7 0 0 0;#P fasten 0 2 19 0 57 141 9 141;#P connect 0 0 19 0;#P connect 0 1 1 0;#P connect 13 0 7 1;#P fasten 0 0 6 0 9 141 307 141;#P fasten 0 2 6 0 57 141 307 141;#P connect 6 0 12 0;#P connect 25 0 24 0;#P fasten 27 0 24 0 373 237 331 237;#P fasten 37 0 24 0 404 237 331 237;#P connect 24 0 26 0;#P fasten 28 0 26 0 381 305 331 305;#P fasten 32 0 26 0 381 333 331 333;#P connect 26 0 22 0;#P hidden connect 4 0 11 0;#P connect 11 0 10 0;#P connect 10 0 9 0;#P hidden connect 3 0 4 0;#P connect 33 0 32 2;#P connect 29 0 28 2;#P connect 34 0 32 3;#P connect 30 0 28 3;#P connect 35 0 32 4;#P connect 31 0 28 4;#P connect 39 0 32 5;#P connect 38 0 28 5;#P fasten 49 0 44 0 640 333 590 333;#P fasten 45 0 44 0 640 305 590 305;#P fasten 24 0 44 0 331 335 590 335;#P connect 44 0 53 0;#P fasten 54 0 53 0 604 409 590 409;#P fasten 55 0 53 0 705 409 590 409;#P connect 53 0 43 0;#P connect 56 0 54 2;#P connect 50 0 49 2;#P connect 46 0 45 2;#P connect 57 0 54 3;#P connect 51 0 49 3;#P connect 47 0 45 3;#P connect 52 0 49 4;#P connect 48 0 45 4;#P connect 58 0 55 2;#P connect 59 0 55 3;#P pop;