max v2;#N vpatcher 364 128 1005 600;#P window setfont "Sans Serif" 9.;#P window linecount 1;#P message 53 70 44 196617 compile;#P toggle 140 87 15 0;#P message 130 107 48 196617 mode \$1;#P flonum 210 331 35 9 0 0 0 3 0 0 0 221 221 221 222 222 222 0 0 0;#P flonum 153 326 35 9 0 0 0 3 0 0 0 221 221 221 222 222 222 0 0 0;#P user jsui 100 140 150 160 1 0 0 class.rangedialui.js;#P connect 5 0 0 0;#P connect 3 0 0 0;#P connect 4 0 3 0;#P connect 0 0 1 0;#P connect 0 1 2 0;#P pop;