max v2;#N vpatcher 342 54 974 487;#P window setfont "Sans Serif" 9.;#P flonum 57 266 56 9 0 0 0 3 0 0 0 221 221 221 222 222 222 0 0 0;#P flonum 221 52 35 9 0 0 0 3 0 0 0 221 221 221 222 222 222 0 0 0;#P flonum 182 52 35 9 0 0 0 3 0 0 0 221 221 221 222 222 222 0 0 0;#P window linecount 1;#P newex 131 86 98 196617 pak squarePos 0. 0.;#P message 72 93 33 196617 draw;#P message 44 74 44 196617 compile;#P user jsui 57 144 136 103 1 0 0 ClassSlider.js;#P connect 1 0 0 0;#P connect 2 0 0 0;#P connect 3 0 0 0;#P connect 0 0 6 0;#P connect 4 0 3 1;#P connect 5 0 3 2;#P pop;