max v2;#N vpatcher 515 152 1177 682;#P window setfont "Sans Serif" 9.;#P newex 51 206 81 196617 pak location 0 0;#P user pictslider 51 102 100 100 4 4 4 4 SliderDefaultKnob.pct 0 SliderDefaultBkgnd.pct 0 2163 0 8323072 127 1. 1.;#P newex 269 207 85 196617 prepend textRGB;#P user swatch 269 140 142 62;#P message 180 189 33 196617 draw;#P flonum 207 212 35 9 0 0 0 3 0 0 0 221 221 221 222 222 222 0 0 0;#P newex 181 339 68 196617 print Outlet0;#P button 190 212 15 0;#P message 168 172 44 196617 compile;#P user jsui 180 242 172 93 1 0 0 jsui_Jesse.js;#P connect 8 0 9 1;#P connect 8 1 9 2;#P connect 9 0 0 0;#P connect 7 0 0 0;#P connect 5 0 0 0;#P connect 4 0 0 0;#P connect 2 0 0 0;#P connect 1 0 0 0;#P connect 0 0 3 0;#P connect 6 0 7 0;#P pop;